<?xml version="1.0" encoding="utf-8"?>
<svg xmlns="http://www.w3.org/2000/svg" viewBox="750 636.4988 13.5012 13.5012" width="13.5012px" height="13.5012px">
  <path d="M 751.5 648.5 L 752.569 648.5 L 759.9 641.169 L 758.831 640.1 L 751.5 647.431 L 751.5 648.5 Z M 750 650 L 750 646.813 L 759.9 636.931 C 760.05 636.794 760.213 636.687 760.388 636.612 C 760.761 636.461 761.177 636.461 761.55 636.612 C 761.738 636.688 761.901 636.801 762.038 636.95 L 763.068 638 C 763.218 638.138 763.325 638.3 763.388 638.487 C 763.539 638.853 763.539 639.265 763.388 639.631 C 763.32 639.816 763.21 639.983 763.068 640.119 L 753.188 650 L 750 650 Z M 759.356 640.644 L 758.831 640.1 L 759.9 641.169 L 759.356 640.644 Z" transform="matrix(1, 0, 0, 1, 0, 1.1368683772161603e-13)" style="fill: rgb(255, 255, 255);"/>
</svg>